{"title":"The Agency 2001 DVDrip English Klam","uid":5788059,"size":1475182601,"categoryP":"video","categoryS":"movies","magnet":"?xt=urn:btih:a31e2e95cd136eb0f85cb30c19c92e6c4b3b4851&amp;dn=The+Agency+2001+DVDrip+English+Klam&amp;tr=udp%3A%2F%2Ftracker.openbittorrent.com%3A80&amp;tr=udp%3A%2F%2Fopen.demonii.com%3A1337&amp;tr=udp%3A%2F%2Ftracker.coppersurfer.tk%3A6969&amp;tr=udp%3A%2F%2Fexodus.desync.com%3A6969","seeders":0,"leechers":0,"uploader":"Klambake","files":-1,"time":1282728021,"description":"With: Gloria Reuben, Beau Bridges en Gil Bellows\n\nTerrorism. Nuclear threats. Biological weapons. A new Era ... A new War ...\n\nDo you work at the agency, then each day a matter of life or death, whether you're fighting against terrorist attacks or fighting against nuclear threats and biological weapons. Specialized agents from the CIA use of the latest developments and play a central role behind the secret actions pawn Matt Callan tops out in the field should take.\n\nGeneral:\n\nComplete name                    : The Agency\\The Agency.avi\nFormat                           : AVI\nFormat/Info                      : Audio Video Interleave\nFile size                        : 1.37 GiB\nDuration                         : 1h 24mn\nOverall bit rate                 : 2 328 Kbps\n\nVideo:\n\nFormat                           : MPEG-4 Visual\nFormat profile                   : Simple@L3\nFormat settings, BVOP            : No\nFormat settings, QPel            : No\nFormat settings, GMC             : No warppoints\nFormat settings, Matrix          : Default (H.263)\nCodec ID                         : XVID\nCodec ID/Hint                    : XviD\nDuration                         : 1h 24mn\nBit rate                         : 1 869 Kbps\nWidth                            : 720 pixels\nHeight                           : 400 pixels\nDisplay aspect ratio             : 16:9\nFrame rate                       : 25.000 fps\nColor space                      : YUV\nChroma subsampling               : 4:2:0\nBit depth                        : 8 bits\nScan type                        : Progressive\nBits/(Pixel*Frame)               : 0.260\nStream size                      : 1.10 GiB (80%)\nWriting library                  : XviD 1.1.2 (UTC 2006-11-01)\n\nAudio:\n\nFormat                           : AC-3\nFormat/Info                      : Audio Coding 3\nMode extension                   : CM (complete main)\nCodec ID                         : 2000\nDuration                         : 1h 24mn\nBit rate mode                    : Constant\nBit rate                         : 448 Kbps\nChannel(s)                       : 6 channels\nChannel positions                : Front: L C R, Side: L R, LFE\nSampling rate                    : 48.0 KHz\nStream size                      : 270 MiB (19%)\nAlignment                        : Aligned on interleaves\nInterleave, duration             : 32 ms (0.80 video frame)\nInterleave, preload duration     : 128 ms","torrent":{"xt":"urn:btih:a31e2e95cd136eb0f85cb30c19c92e6c4b3b4851","amp;dn":"The+Agency+2001+DVDrip+English+Klam","amp;tr":["udp%3A%2F%2Ftracker.openbittorrent.com%3A80","udp%3A%2F%2Fopen.demonii.com%3A1337","udp%3A%2F%2Ftracker.coppersurfer.tk%3A6969","udp%3A%2F%2Fexodus.desync.com%3A6969"],"infoHash":"a31e2e95cd136eb0f85cb30c19c92e6c4b3b4851","infoHashBuffer":{"type":"Buffer","data":[163,30,46,149,205,19,110,176,248,92,179,12,25,201,46,108,75,59,72,81]},"announce":[],"urlList":[]}}